# xmcd
#
# Track frame offsets:
#	150
#	20767
#	32892
#	47645
#	68990
#	87095
#	107210
#	119500
#	137185
#	160902
#	186732
#	205667
#
# Disc length: 3178 seconds
#
# Revision: 3
# Processed by: cddbd v1.5.2PL0 Copyright (c) Steve Scherf et al.
# Submitted via: dBpowerAMP V4.0
#
DISCID=b20c680c
DTITLE=R. L. Burnside - Burnside On Burnside
DYEAR=2001
DGENRE=Blues
TTITLE0=Shake 'em On Down
TTITLE1=Skinny Woman
TTITLE2=Miss Maybelle
TTITLE3=Rollin' and Tumblin'
TTITLE4=Long Haired Doney
TTITLE5=Walkin' Blues
TTITLE6=He Ain't Your Daddy
TTITLE7=Bad Luck And Trouble
TTITLE8=Jumper On The Line
TTITLE9=Goin' Down South
TTITLE10=Alice Mae
TTITLE11=Snake Drive
EXTD=
EXTT0=
EXTT1=
EXTT2=
EXTT3=
EXTT4=
EXTT5=
EXTT6=
EXTT7=
EXTT8=
EXTT9=
EXTT10=
EXTT11=
PLAYORDER=
